<?xml version="1.0" encoding="utf-8"?>
<!-- Svg Vector Icons : http://www.onlinewebfonts.com/icon -->
<!DOCTYPE svg PUBLIC "-//W3C//DTD SVG 1.1//EN" "http://www.w3.org/Graphics/SVG/1.1/DTD/svg11.dtd">
<svg version="1.1" xmlns="http://www.w3.org/2000/svg" xmlns:xlink="http://www.w3.org/1999/xlink" x="0px" y="0px" viewBox="0 0 256 256" enable-background="new 0 0 256 256" xml:space="preserve">
<metadata> Svg Vector Icons : http://www.onlinewebfonts.com/icon </metadata>
<g><g><g><path fill="hsl(223, 100%, 88%)" d="M117.5,11.5c-1.3,0.2-5.5,0.8-9.4,1.4c-22.6,3.3-46.7,15.7-63.8,32.8C-0.4,90.5-1.6,161.9,41.8,207.7c17.9,19,40.5,31.2,66.1,35.6c17.3,3,41.2,1.3,57.5-4.2c61.9-20.7,95.1-86.7,74.5-148.1c-15.4-46.2-58.8-78.1-108.3-79.5C125.1,11.2,118.8,11.2,117.5,11.5z M146.2,28c20.4,3.4,43.5,16,57.3,31.1c23.6,25.9,32.6,61,23.8,95c-2.4,9.5-10.6,26.3-16.7,34.3c-14.7,19.3-33.8,32-58.2,38.7c-6.1,1.7-9.9,2-24.1,2c-15.4,0.1-17.7-0.2-26.1-2.4c-10.4-2.8-23.9-8.9-32.7-14.7c-7.8-5.3-21.9-19.4-26.9-27.2c-10.8-16.4-16-32.2-16.8-51.2c-0.7-14.5,0.6-24.7,4.4-36.2C46.5,48.2,94.9,19.4,146.2,28z"/><path fill="hsl(223, 87%, 63%)" d="M126.6,49.4c-5.4,1.4-9.2,3.6-13.6,7.8c-6.2,6-7.8,11.5-8.4,28.5l-0.5,14.4h-7.8h-7.9v12.2v12.2h8h8l0.2,40.5l0.3,40.6l15.3,0.3l15.2,0.2v-40.8v-40.8h12.1h12.1l0.6-2.6c0.3-1.4,0.8-6.9,1.1-12.2l0.6-9.6h-13.2h-13.2v-8.8c0-10.2,1-13.9,4.4-15.7c2.4-1.3,9.5-1.7,17.2-0.8l4.2,0.5l1.8-11.5c1-6.4,1.6-11.8,1.2-12.1C162.1,49.5,132.9,47.8,126.6,49.4z"/></g></g></g>
</svg>