<?xml version="1.0" encoding="utf-8"?>
<!-- Svg Vector Icons : http://www.onlinewebfonts.com/icon -->
<!DOCTYPE svg PUBLIC "-//W3C//DTD SVG 1.1//EN" "http://www.w3.org/Graphics/SVG/1.1/DTD/svg11.dtd">
<svg version="1.1" xmlns="http://www.w3.org/2000/svg" xmlns:xlink="http://www.w3.org/1999/xlink" x="0px" y="0px" viewBox="0 0 256 256" enable-background="new 0 0 256 256" xml:space="preserve">
<metadata> Svg Vector Icons : http://www.onlinewebfonts.com/icon </metadata>
<g><g><g><path fill="hsl(223, 100%, 88%)" d="M117.5,11.5c-1.3,0.2-5.5,0.8-9.4,1.4c-22.6,3.3-46.7,15.7-63.8,32.8C-0.4,90.5-1.6,161.9,41.8,207.7c17.9,19,40.5,31.2,66.1,35.6c17.3,3,41.2,1.3,57.5-4.2c61.9-20.7,95.1-86.7,74.5-148.1c-15.4-46.2-58.8-78.1-108.3-79.5C125.1,11.2,118.8,11.2,117.5,11.5z M146.2,28c20.4,3.4,43.5,16,57.3,31.1c23.6,25.9,32.6,61,23.8,95c-2.4,9.5-10.6,26.3-16.7,34.3c-14.7,19.3-33.8,32-58.2,38.7c-6.1,1.7-9.9,2-24.1,2c-15.4,0.1-17.7-0.2-26.1-2.4c-10.4-2.8-23.9-8.9-32.7-14.7c-7.8-5.3-21.9-19.4-26.9-27.2c-10.8-16.4-16-32.2-16.8-51.2c-0.7-14.5,0.6-24.7,4.4-36.2C46.5,48.2,94.9,19.4,146.2,28z"/><path fill="hsl(223, 87%, 63%)" d="M165.9,66.9c-2.1,0.8-4.1,1.8-4.6,2.3c-1.4,1.4-2.4,1.1-1.9-0.5c1.2-3-1.5-1.1-7.7,5.4c-7.5,8-12.2,15.5-16.9,27.5l-3.5,8.6l-6.7-5.1c-10-7.7-22-13.5-51.9-25.4c-1.9-0.8-1.5,5.2,0.6,9.6c0.9,2.1,3.8,5.7,6.5,8.1l4.8,4.4l-3.8,0.6c-5.3,0.8-5.6,1.1-3.9,5.1c2,4.8,6.6,9.4,11.8,11.9l4.4,2.1l-4.7,1.9c-2.5,1.1-4.6,2.6-4.6,3.4c0,4.1,8,9.7,15.5,10.7l4.3,0.6l-2.3,2.4c-4.6,4.9-2.3,10.3,5.1,12.3c2.1,0.6,3.6,1.4,3.3,1.9c-0.3,0.5-3.1,2.5-6.2,4.6c-7.9,5.3-16,7.6-26.1,7.6c-9.8,0-15.9-1.6-25.2-6.7c-6.9-3.7-6.9-3.7-5-1c3.5,5,14.9,15,21.4,18.9c15.2,9,31.3,12.8,51.9,12c28.7-1,52.8-11.7,68.8-30.6c4.7-5.4,11-16.9,12.9-23.2c1.1-3.8,1.3-3.9,6-4.5c5.1-0.7,13.6-4.3,15.6-6.7c1-1.2,0.6-1.4-3-1.4c-5.4,0-13-1-13-1.8c0-0.3,2.4-1.3,5.4-2.2c5.7-1.7,10.5-4.8,10.5-6.8c0-0.8-1.3-0.9-5.5-0.2c-3.4,0.6-7.3,0.6-10.4,0l-4.9-0.8l-2.1-6.7c-4.3-13.7-13.1-22.3-26.7-26.3l-7-2l4.5-1.6c4.6-1.5,8-3.8,8-5.5c0-0.5-2.2-0.8-5.2-0.5c-4.2,0.4-5,0.2-4-0.8C172.1,66.3,169.9,65.5,165.9,66.9z"/></g></g></g>
</svg>